<svg xmlns="http://www.w3.org/2000/svg" height="322" width="870" class="marks"><g transform="translate(46,6)"><g class="type-group" id="g25"><g transform="translate(0,0)"><rect height="220" width="700" style="pointer-events: none; fill: none;" class="background"></rect><g class="type-group" id="g26"><g transform="translate(0,220)"><rect height="0" width="0" style="pointer-events: none; fill: none;" class="background"></rect><g style="pointer-events: none;" class="type-rule" id="g27"><line style="fill: none; stroke: rgb(216, 216, 216); stroke-width: 1; opacity: 1;" y2="0" x2="37" y1="-220" x1="37"></line><line style="fill: none; stroke: rgb(216, 216, 216); stroke-width: 1; opacity: 1;" y2="0" x2="94" y1="-220" x1="94"></line><line style="fill: none; stroke: rgb(216, 216, 216); stroke-width: 1; opacity: 1;" y2="0" x2="151" y1="-220" x1="151"></line><line style="fill: none; stroke: rgb(216, 216, 216); stroke-width: 1; opacity: 1;" y2="0" x2="208" y1="-220" x1="208"></line><line style="fill: none; stroke: rgb(216, 216, 216); stroke-width: 1; opacity: 1;" y2="0" x2="265" y1="-220" x1="265"></line><line style="fill: none; stroke: rgb(216, 216, 216); stroke-width: 1; opacity: 1;" y2="0" x2="322" y1="-220" x1="322"></line><line style="fill: none; stroke: rgb(216, 216, 216); stroke-width: 1; opacity: 1;" y2="0" x2="379" y1="-220" x1="379"></line><line style="fill: none; stroke: rgb(216, 216, 216); stroke-width: 1; opacity: 1;" y2="0" x2="436" y1="-220" x1="436"></line><line style="fill: none; stroke: rgb(216, 216, 216); stroke-width: 1; opacity: 1;" y2="0" x2="493" y1="-220" x1="493"></line><line style="fill: none; stroke: rgb(216, 216, 216); stroke-width: 1; opacity: 1;" y2="0" x2="550" y1="-220" x1="550"></line><line style="fill: none; stroke: rgb(216, 216, 216); stroke-width: 1; opacity: 1;" y2="0" x2="607" y1="-220" x1="607"></line><line style="fill: none; stroke: rgb(216, 216, 216); stroke-width: 1; opacity: 1;" y2="0" x2="664" y1="-220" x1="664"></line></g><g style="pointer-events: none;" class="type-rule" id="g28"><line style="fill: none; stroke: rgb(0, 0, 0); stroke-width: 1; opacity: 1;" y2="6" x2="37" y1="0" x1="37"></line><line style="fill: none; stroke: rgb(0, 0, 0); stroke-width: 1; opacity: 1;" y2="6" x2="94" y1="0" x1="94"></line><line style="fill: none; stroke: rgb(0, 0, 0); stroke-width: 1; opacity: 1;" y2="6" x2="151" y1="0" x1="151"></line><line style="fill: none; stroke: rgb(0, 0, 0); stroke-width: 1; opacity: 1;" y2="6" x2="208" y1="0" x1="208"></line><line style="fill: none; stroke: rgb(0, 0, 0); stroke-width: 1; opacity: 1;" y2="6" x2="265" y1="0" x1="265"></line><line style="fill: none; stroke: rgb(0, 0, 0); stroke-width: 1; opacity: 1;" y2="6" x2="322" y1="0" x1="322"></line><line style="fill: none; stroke: rgb(0, 0, 0); stroke-width: 1; opacity: 1;" y2="6" x2="379" y1="0" x1="379"></line><line style="fill: none; stroke: rgb(0, 0, 0); stroke-width: 1; opacity: 1;" y2="6" x2="436" y1="0" x1="436"></line><line style="fill: none; stroke: rgb(0, 0, 0); stroke-width: 1; opacity: 1;" y2="6" x2="493" y1="0" x1="493"></line><line style="fill: none; stroke: rgb(0, 0, 0); stroke-width: 1; opacity: 1;" y2="6" x2="550" y1="0" x1="550"></line><line style="fill: none; stroke: rgb(0, 0, 0); stroke-width: 1; opacity: 1;" y2="6" x2="607" y1="0" x1="607"></line><line style="fill: none; stroke: rgb(0, 0, 0); stroke-width: 1; opacity: 1;" y2="6" x2="664" y1="0" x1="664"></line></g><g style="pointer-events: none;" class="type-rule" id="g29"></g><g class="type-text" id="g30"><text style="font: 11px sans-serif; fill: rgb(0, 0, 0); opacity: 1;" dy=".9em" transform="rotate(65 37,9)" text-anchor="start" y="9" x="37">*srTAggBehav</text><text style="font: 11px sans-serif; fill: rgb(0, 0, 0); opacity: 1;" dy=".9em" transform="rotate(65 94,9)" text-anchor="start" y="9" x="94">*srTAnxDep</text><text style="font: 11px sans-serif; fill: rgb(0, 0, 0); opacity: 1;" dy=".9em" transform="rotate(65 151,9)" text-anchor="start" y="9" x="151">*srTAnxProb</text><text style="font: 11px sans-serif; fill: rgb(0, 0, 0); opacity: 1;" dy=".9em" transform="rotate(65 208,9)" text-anchor="start" y="9" x="208">*srTAttProb</text><text style="font: 11px sans-serif; fill: rgb(0, 0, 0); opacity: 1;" dy=".9em" transform="rotate(65 265,9)" text-anchor="start" y="9" x="265">*srTExternal</text><text style="font: 11px sans-serif; fill: rgb(0, 0, 0); opacity: 1;" dy=".9em" transform="rotate(65 322,9)" text-anchor="start" y="9" x="322">*srTInternal</text><text style="font: 11px sans-serif; fill: rgb(0, 0, 0); opacity: 1;" dy=".9em" transform="rotate(65 379,9)" text-anchor="start" y="9" x="379">*srTThoProb</text><text style="font: 11px sans-serif; fill: rgb(0, 0, 0); opacity: 1;" dy=".9em" transform="rotate(65 436,9)" text-anchor="start" y="9" x="436">*srTWithDep</text><text style="font: 11px sans-serif; fill: rgb(0, 0, 0); opacity: 1;" dy=".9em" transform="rotate(65 493,9)" text-anchor="start" y="9" x="493">*srTWithdrawn</text><text style="font: 11px sans-serif; fill: rgb(0, 0, 0); opacity: 1;" dy=".9em" transform="rotate(65 550,9)" text-anchor="start" y="9" x="550">tsr</text><text style="font: 11px sans-serif; fill: rgb(0, 0, 0); opacity: 1;" dy=".9em" transform="rotate(65 607,9)" text-anchor="start" y="9" x="607">sssTOT</text><text style="font: 11px sans-serif; fill: rgb(0, 0, 0); opacity: 1;" dy=".9em" transform="rotate(65 664,9)" text-anchor="start" y="9" x="664">wfull2</text></g><g style="pointer-events: none;" class="type-path" id="g31"><path style="fill: none; stroke: rgb(0, 0, 0); stroke-width: 1;" d="M0,6V0H700V6" transform="translate(0.5,0.5)"></path></g><g class="type-text" id="g32"><text style="font: bold 11px sans-serif; fill: rgb(0, 0, 0);" dy=".35em" text-anchor="middle" y="35" x="350">sub</text></g></g></g><g class="type-group" id="g33"><g transform="translate(0,0)"><rect height="0" width="0" style="pointer-events: none; fill: none;" class="background"></rect><g style="pointer-events: none;" class="type-rule" id="g34"><line style="fill: none; stroke: rgb(216, 216, 216); stroke-width: 1; opacity: 1;" y2="220.5" x2="700" y1="220.5" x1="0"></line><line style="fill: none; stroke: rgb(216, 216, 216); stroke-width: 1; opacity: 1;" y2="190.56802721088437" x2="700" y1="190.56802721088437" x1="0"></line><line style="fill: none; stroke: rgb(216, 216, 216); stroke-width: 1; opacity: 1;" y2="160.6360544217687" x2="700" y1="160.6360544217687" x1="0"></line><line style="fill: none; stroke: rgb(216, 216, 216); stroke-width: 1; opacity: 1;" y2="130.70408163265307" x2="700" y1="130.70408163265307" x1="0"></line><line style="fill: none; stroke: rgb(216, 216, 216); stroke-width: 1; opacity: 1;" y2="100.77210884353742" x2="700" y1="100.77210884353742" x1="0"></line><line style="fill: none; stroke: rgb(216, 216, 216); stroke-width: 1; opacity: 1;" y2="70.84013605442178" x2="700" y1="70.84013605442178" x1="0"></line><line style="fill: none; stroke: rgb(216, 216, 216); stroke-width: 1; opacity: 1;" y2="40.908163265306115" x2="700" y1="40.908163265306115" x1="0"></line><line style="fill: none; stroke: rgb(216, 216, 216); stroke-width: 1; opacity: 1;" y2="10.976190476190482" x2="700" y1="10.976190476190482" x1="0"></line></g><g style="pointer-events: none;" class="type-rule" id="g35"><line style="fill: none; stroke: rgb(0, 0, 0); stroke-width: 1; opacity: 1;" y2="220.5" x2="0" y1="220.5" x1="-6"></line><line style="fill: none; stroke: rgb(0, 0, 0); stroke-width: 1; opacity: 1;" y2="190.56802721088437" x2="0" y1="190.56802721088437" x1="-6"></line><line style="fill: none; stroke: rgb(0, 0, 0); stroke-width: 1; opacity: 1;" y2="160.6360544217687" x2="0" y1="160.6360544217687" x1="-6"></line><line style="fill: none; stroke: rgb(0, 0, 0); stroke-width: 1; opacity: 1;" y2="130.70408163265307" x2="0" y1="130.70408163265307" x1="-6"></line><line style="fill: none; stroke: rgb(0, 0, 0); stroke-width: 1; opacity: 1;" y2="100.77210884353742" x2="0" y1="100.77210884353742" x1="-6"></line><line style="fill: none; stroke: rgb(0, 0, 0); stroke-width: 1; opacity: 1;" y2="70.84013605442178" x2="0" y1="70.84013605442178" x1="-6"></line><line style="fill: none; stroke: rgb(0, 0, 0); stroke-width: 1; opacity: 1;" y2="40.908163265306115" x2="0" y1="40.908163265306115" x1="-6"></line><line style="fill: none; stroke: rgb(0, 0, 0); stroke-width: 1; opacity: 1;" y2="10.976190476190482" x2="0" y1="10.976190476190482" x1="-6"></line></g><g style="pointer-events: none;" class="type-rule" id="g36"></g><g class="type-text" id="g37"><text style="font: 11px sans-serif; fill: rgb(0, 0, 0); opacity: 1;" dy=".35em" text-anchor="end" y="220.5" x="-9">0</text><text style="font: 11px sans-serif; fill: rgb(0, 0, 0); opacity: 1;" dy=".35em" text-anchor="end" y="190.56802721088437" x="-9">20</text><text style="font: 11px sans-serif; fill: rgb(0, 0, 0); opacity: 1;" dy=".35em" text-anchor="end" y="160.6360544217687" x="-9">40</text><text style="font: 11px sans-serif; fill: rgb(0, 0, 0); opacity: 1;" dy=".35em" text-anchor="end" y="130.70408163265307" x="-9">60</text><text style="font: 11px sans-serif; fill: rgb(0, 0, 0); opacity: 1;" dy=".35em" text-anchor="end" y="100.77210884353742" x="-9">80</text><text style="font: 11px sans-serif; fill: rgb(0, 0, 0); opacity: 1;" dy=".35em" text-anchor="end" y="70.84013605442178" x="-9">100</text><text style="font: 11px sans-serif; fill: rgb(0, 0, 0); opacity: 1;" dy=".35em" text-anchor="end" y="40.908163265306115" x="-9">120</text><text style="font: 11px sans-serif; fill: rgb(0, 0, 0); opacity: 1;" dy=".35em" text-anchor="end" y="10.976190476190482" x="-9">140</text></g><g style="pointer-events: none;" class="type-path" id="g38"><path style="fill: none; stroke: rgb(0, 0, 0); stroke-width: 1;" d="M-6,0H0V220H-6" transform="translate(0.5,0.5)"></path></g><g class="type-text" id="g39"><text style="font: bold 11px sans-serif; fill: rgb(0, 0, 0);" dy=".35em" transform="rotate(-90 -35,110)" text-anchor="middle" y="110" x="-35">count</text></g></g></g><g class="type-group" id="g40"><g transform="translate(0,0)"><rect style="fill: none;" height="0" width="0" class="background"></rect><g class="type-rect" id="g41"><rect style="fill: rgb(31, 119, 180); stroke: rgb(0, 0, 0);" height="178.0952380952381" width="51" y="41.9047619047619" x="11"></rect><rect style="fill: rgb(31, 119, 180); stroke: rgb(0, 0, 0);" height="178.0952380952381" width="51" y="41.9047619047619" x="68"></rect><rect style="fill: rgb(31, 119, 180); stroke: rgb(0, 0, 0);" height="175.10204081632654" width="51" y="44.897959183673464" x="125"></rect><rect style="fill: rgb(31, 119, 180); stroke: rgb(0, 0, 0);" height="178.0952380952381" width="51" y="41.9047619047619" x="182"></rect><rect style="fill: rgb(31, 119, 180); stroke: rgb(0, 0, 0);" height="178.0952380952381" width="51" y="41.9047619047619" x="239"></rect><rect style="fill: rgb(31, 119, 180); stroke: rgb(0, 0, 0);" height="178.0952380952381" width="51" y="41.9047619047619" x="296"></rect><rect style="fill: rgb(31, 119, 180); stroke: rgb(0, 0, 0);" height="178.0952380952381" width="51" y="41.9047619047619" x="353"></rect><rect style="fill: rgb(31, 119, 180); stroke: rgb(0, 0, 0);" height="100.27210884353741" width="51" y="119.72789115646259" x="410"></rect><rect style="fill: rgb(31, 119, 180); stroke: rgb(0, 0, 0);" height="92.7891156462585" width="51" y="127.2108843537415" x="467"></rect></g></g><g transform="translate(0,0)"><rect style="fill: none;" height="0" width="0" class="background"></rect><g class="type-rect" id="g42"><rect style="fill: rgb(255, 127, 14); stroke: rgb(0, 0, 0);" height="136.1904761904762" width="51" y="83.8095238095238" x="524"></rect></g></g><g transform="translate(0,0)"><rect style="fill: none;" height="0" width="0" class="background"></rect><g class="type-rect" id="g43"><rect style="fill: rgb(44, 160, 44); stroke: rgb(0, 0, 0);" height="209.52380952380952" width="51" y="10.476190476190482" x="581"></rect></g></g><g transform="translate(0,0)"><rect style="fill: none;" height="0" width="0" class="background"></rect><g class="type-rect" id="g44"><rect style="fill: rgb(214, 39, 40); stroke: rgb(0, 0, 0);" height="208.02721088435374" width="51" y="11.972789115646265" x="638"></rect></g></g></g><g class="type-group" id="g45"><g transform="translate(711.5,0.5)"><rect height="76" width="107" style="pointer-events: none; fill: none;" class="background"></rect><g style="pointer-events: none;" class="type-text" id="g46"><text style="font: bold 11px sans-serif; fill: rgb(0, 0, 0); opacity: 1;" dy=".9em" text-anchor="start" y="3" x="3">task</text></g><g style="pointer-events: none;" class="type-symbol" id="g47"><path style="fill: rgb(31, 119, 180); stroke: rgb(136, 136, 136); stroke-width: 1; opacity: 1;" d="M0,3.989422804014327A3.989422804014327,3.989422804014327 0 1,1 0,-3.989422804014327A3.989422804014327,3.989422804014327 0 1,1 0,3.989422804014327Z" transform="translate(7.5,23)"></path><path style="fill: rgb(255, 127, 14); stroke: rgb(136, 136, 136); stroke-width: 1; opacity: 1;" d="M0,3.989422804014327A3.989422804014327,3.989422804014327 0 1,1 0,-3.989422804014327A3.989422804014327,3.989422804014327 0 1,1 0,3.989422804014327Z" transform="translate(7.5,38)"></path><path style="fill: rgb(44, 160, 44); stroke: rgb(136, 136, 136); stroke-width: 1; opacity: 1;" d="M0,3.989422804014327A3.989422804014327,3.989422804014327 0 1,1 0,-3.989422804014327A3.989422804014327,3.989422804014327 0 1,1 0,3.989422804014327Z" transform="translate(7.5,53)"></path><path style="fill: rgb(214, 39, 40); stroke: rgb(136, 136, 136); stroke-width: 1; opacity: 1;" d="M0,3.989422804014327A3.989422804014327,3.989422804014327 0 1,1 0,-3.989422804014327A3.989422804014327,3.989422804014327 0 1,1 0,3.989422804014327Z" transform="translate(7.5,68)"></path></g><g style="pointer-events: none;" class="type-text" id="g48"><text style="font: 10px sans-serif; fill: rgb(0, 0, 0); opacity: 1;" dy=".35em" text-anchor="start" y="23" x="16">*SR</text><text style="font: 10px sans-serif; fill: rgb(0, 0, 0); opacity: 1;" dy=".35em" text-anchor="start" y="38" x="16">Puberty</text><text style="font: 10px sans-serif; fill: rgb(0, 0, 0); opacity: 1;" dy=".35em" text-anchor="start" y="53" x="16">SensationSeeking</text><text style="font: 10px sans-serif; fill: rgb(0, 0, 0); opacity: 1;" dy=".35em" text-anchor="start" y="68" x="16">WASI</text></g></g></g></g></g></g></svg>